<svg id="undraw_male_avatar_323b" xmlns="http://www.w3.org/2000/svg" width="27.705" height="27.706" viewBox="0 0 27.705 27.706">
  <path id="Caminho_200" data-name="Caminho 200" d="M289.7,125.852a13.806,13.806,0,0,1-1.116,5.455l-.046.106a13.875,13.875,0,0,1-15.095,8.084l-.249-.046a13.729,13.729,0,0,1-2.506-.739q-.2-.079-.392-.164c-.089-.039-.177-.078-.265-.119A13.854,13.854,0,1,1,289.7,125.852Z" transform="translate(-262 -112)" fill="#fff"/>
  <path id="Caminho_201" data-name="Caminho 201" d="M403.77,346.98l-.249-.046a56.958,56.958,0,0,0-.873-8.168,30.3,30.3,0,0,0-1.494-5.433,16.916,16.916,0,0,0-.782-1.715,8.893,8.893,0,0,0-2.482-3.07l.146-.2a8.571,8.571,0,0,1,2.222,2.544q.3.491.568,1.047.292.6.557,1.264.169.425.327.88a31.956,31.956,0,0,1,1.166,4.507q.106.559.2,1.146A58.122,58.122,0,0,1,403.77,346.98Z" transform="translate(-392.321 -319.483)" opacity="0.2"/>
  <path id="Caminho_202" data-name="Caminho 202" d="M404.142,601.465c-.089-.039-.177-.078-.265-.119a20.116,20.116,0,0,0-.531-3.18,10.434,10.434,0,0,0-.484-1.443,4.329,4.329,0,0,0-1.3-1.825l.146-.2a4.528,4.528,0,0,1,1.362,1.866,12.8,12.8,0,0,1,.816,2.876C404.012,600.167,404.092,600.868,404.142,601.465Z" transform="translate(-395.84 -574.917)" opacity="0.2"/>
  <circle id="Elipse_14" data-name="Elipse 14" cx="1.233" cy="1.233" r="1.233" transform="translate(2.958 6.594)" opacity="0.2"/>
  <circle id="Elipse_15" data-name="Elipse 15" cx="1.233" cy="1.233" r="1.233" transform="translate(3.355 17.209)" opacity="0.2"/>
  <path id="Caminho_203" data-name="Caminho 203" d="M482.124,294.287a5.478,5.478,0,0,0,.316,2.811,4.992,4.992,0,0,0,.947-5.343A5.477,5.477,0,0,0,482.124,294.287Z" transform="translate(-473.037 -284.389)" opacity="0.2"/>
  <path id="Caminho_204" data-name="Caminho 204" d="M330.491,397.241a5.5,5.5,0,0,0,2.821.184,5.022,5.022,0,0,0-5.1-1.863A5.5,5.5,0,0,0,330.491,397.241Z" transform="translate(-325.503 -383.841)" opacity="0.2"/>
  <path id="Caminho_205" data-name="Caminho 205" d="M340.621,638.941a1.034,1.034,0,1,0-1.593-1.181A3.839,3.839,0,0,0,340.621,638.941Z" transform="translate(-335.871 -616.14)" opacity="0.2"/>
  <circle id="Elipse_16" data-name="Elipse 16" cx="5.4" cy="5.4" r="5.4" transform="translate(8.424 6.119)" fill="#d0cde1"/>
  <path id="Caminho_206" data-name="Caminho 206" d="M547.833,454.475s.675,3.207.675,3.544,3.206,1.856,3.206,1.856l2.869-.506,1.013-3.038s-1.688-2.531-1.688-3.544Z" transform="translate(-536.119 -438.82)" fill="#d0cde1"/>
  <path id="Caminho_207" data-name="Caminho 207" d="M408.7,519.978l-.046.106a13.875,13.875,0,0,1-15.095,8.084l-.249-.046a13.733,13.733,0,0,1-2.506-.739q-.2-.079-.392-.164c-.089-.039-.177-.078-.265-.119a13.831,13.831,0,0,1-2.264-1.323l-.64-1.857.36-.275.74-.565.79-.6.205-.157,3.1-2.366.229-.175,1.611-1.229h0s1.742,2.838,4.273,1.994a3.491,3.491,0,0,0,2.476-3.264Z" transform="translate(-382.107 -500.67)" fill="#2f2e41"/>
  <path id="Caminho_208" data-name="Caminho 208" d="M455.315,217.041s1.715-3.715,5-2.858,5.144,2.143,5.287,3.429a18.348,18.348,0,0,1-.071,3.215s-.357-2.643-2.643-2.072a20.392,20.392,0,0,1-5.858.143l-.572,5.144s-.643-.929-1.357-.357S453.029,218.184,455.315,217.041Z" transform="translate(-446.174 -209.872)" fill="#2f2e41"/>
  <path id="Caminho_209" data-name="Caminho 209" d="M374.766,682.734q-.2-.079-.392-.164c-.089-.039-.177-.078-.265-.119a13.886,13.886,0,0,1-3.59-2.406,4.859,4.859,0,0,1,.685-.774h2.532l.38,1.276Z" transform="translate(-366.072 -656.021)" fill="#2f2e41"/>
  <path id="Caminho_210" data-name="Caminho 210" d="M853.055,576.32l2.172.384a13.85,13.85,0,0,1-2.326,3.63Z" transform="translate(-828.683 -557.291)" fill="#2f2e41"/>
</svg>
