<svg xmlns="http://www.w3.org/2000/svg" width="20" height="22.857" viewBox="0 0 20 22.857">
  <path id="bell-solid" d="M10,22.857A2.857,2.857,0,0,0,12.855,20H7.144A2.857,2.857,0,0,0,10,22.857Zm9.616-6.683c-.862-.927-2.476-2.321-2.476-6.888a7.05,7.05,0,0,0-5.712-6.927v-.93a1.428,1.428,0,1,0-2.855,0v.93A7.05,7.05,0,0,0,2.86,9.286c0,4.567-1.614,5.961-2.476,6.888A1.4,1.4,0,0,0,0,17.143a1.43,1.43,0,0,0,1.433,1.429H18.566A1.43,1.43,0,0,0,20,17.143,1.394,1.394,0,0,0,19.615,16.174Z" transform="translate(0.001)" fill="#818191"/>
</svg>
