<svg xmlns="http://www.w3.org/2000/svg" width="18.68" height="14.944" viewBox="0 0 18.68 14.944">
  <path id="theater-masks-solid" d="M6.035,7.155A2.183,2.183,0,0,0,4.356,9.318a3.467,3.467,0,0,1,1.456-.9l.223-1.26ZM2.794,8.61l-.926-5.24a.145.145,0,0,1,.007-.077,11.4,11.4,0,0,1,5.517-1.43c.047,0,.094,0,.142.006A2.8,2.8,0,0,1,9.039,1.11,14.194,14.194,0,0,1,10.708.954,1.876,1.876,0,0,0,9.489.166a13.244,13.244,0,0,0-8.522,1.5A1.929,1.929,0,0,0,.028,3.695l.926,5.24c.415,2.35,3.979,4.147,5.967,4.147a2.688,2.688,0,0,0,.292-.023,7.837,7.837,0,0,1-1.153-1.973c-1.39-.379-3.1-1.507-3.267-2.475ZM5.641,4.6a1.153,1.153,0,0,0-.119-.333A1.839,1.839,0,0,1,4.492,4.8a1.84,1.84,0,0,1-1.152-.151,1.148,1.148,0,0,0,0,.353,1.167,1.167,0,0,0,2.3-.4ZM17.709,3.529a13.231,13.231,0,0,0-8.522-1.5A1.932,1.932,0,0,0,7.609,3.617l-.926,5.24C6.234,11.4,9.464,14.585,11.3,14.908s5.968-1.57,6.417-4.111l.926-5.24a1.928,1.928,0,0,0-.938-2.029ZM9.734,6.354a1.168,1.168,0,0,1,2.3.4,1.153,1.153,0,0,1-.119.333,1.938,1.938,0,0,0-2.183-.384,1.14,1.14,0,0,1,0-.353Zm2.057,5.8a3.111,3.111,0,0,1-2.6-3.3,4.806,4.806,0,0,0,2.9,1.57,4.814,4.814,0,0,0,3.267-.485,3.117,3.117,0,0,1-3.572,2.21Zm3.8-4.417a1.939,1.939,0,0,0-2.184-.384,1.148,1.148,0,0,1,0-.353,1.167,1.167,0,0,1,2.3.4A1.147,1.147,0,0,1,15.594,7.738Z" transform="translate(0.002)" fill="#808190"/>
</svg>
