<svg xmlns="http://www.w3.org/2000/svg" width="18.086" height="14.47" viewBox="0 0 18.086 14.47">
  <path id="glass-cheers-solid" d="M18.047,12.2a1.126,1.126,0,0,0-1.475-.61l-.624.26L14.853,8.968a3.309,3.309,0,0,0,.975-4.318L13.381.4a.907.907,0,0,0-1.13-.384L9.021,1.352,5.791.013A.9.9,0,0,0,4.661.4L2.214,4.65a3.308,3.308,0,0,0,.975,4.315L2.1,11.844l-.624-.26A1.127,1.127,0,0,0,0,12.195a.226.226,0,0,0,.122.3L4.7,14.4A.223.223,0,0,0,5,14.274a1.133,1.133,0,0,0-.61-1.478l-.624-.26L4.876,9.609a3.349,3.349,0,0,0,.37.037,3.287,3.287,0,0,0,3.2-2.41L9.021,5.1l.571,2.131a3.287,3.287,0,0,0,3.2,2.41,3.349,3.349,0,0,0,.37-.037l1.111,2.927-.624.26a1.131,1.131,0,0,0-.61,1.478.224.224,0,0,0,.294.122l4.589-1.9a.226.226,0,0,0,.122-.294ZM7.775,4.526,4.607,3.212,5.639,1.42l2.67,1.108Zm2.492,0-.534-2L12.4,1.42l1.031,1.792Z" transform="translate(0.022 0.057)" fill="#808190"/>
</svg>
