<svg xmlns="http://www.w3.org/2000/svg" width="10.351" height="12.739" viewBox="0 0 10.351 12.739">
  <path id="utensils-solid" d="M5.173.377a30.422,30.422,0,0,1,.4,3.2,2.623,2.623,0,0,1-1.714,2.6l.321,5.924a.6.6,0,0,1-.6.63H1.991a.6.6,0,0,1-.6-.63l.321-5.924A2.623,2.623,0,0,1,0,3.582,30.332,30.332,0,0,1,.4.377C.48-.128,1.528-.136,1.592.4V3.917c.032.085.376.08.4,0,.035-.63.2-3.464.2-3.528.082-.518,1.112-.518,1.192,0,0,.067.164,2.9.2,3.528.022.08.368.085.4,0V.4C4.043-.133,5.093-.128,5.173.377ZM8.139,7.485l-.373,4.606a.6.6,0,0,0,.595.647H9.754a.6.6,0,0,0,.6-.6V.6a.6.6,0,0,0-.6-.6C7.7,0,4.245,4.44,8.139,7.485Z" transform="translate(0 0.001)" fill="#fff"/>
</svg>
